<?xml version="1.0" standalone="no"?>
<!DOCTYPE svg PUBLIC "-//W3C//DTD SVG 20010904//EN"
 "http://www.w3.org/TR/2001/REC-SVG-20010904/DTD/svg10.dtd">
<svg version="1.0" xmlns="http://www.w3.org/2000/svg"
 width="240.000000pt" height="240.000000pt" viewBox="0 0 240.000000 240.000000"
 preserveAspectRatio="xMidYMid meet">
<metadata>
Created by potrace 1.15, written by Peter Selinger 2001-2017
</metadata>
<g transform="translate(0.000000,240.000000) scale(0.100000,-0.100000)"
fill="#000000" stroke="none">
<path d="M1066 2206 c-53 -20 -106 -65 -130 -112 -20 -36 -21 -56 -21 -285 l0
-247 -60 -86 c-33 -47 -74 -106 -92 -131 -17 -25 -45 -82 -62 -128 -17 -45
-47 -115 -66 -155 -26 -53 -35 -86 -35 -123 0 -47 1 -49 20 -39 45 24 95 -16
189 -149 142 -201 179 -288 147 -349 -16 -31 -59 -52 -105 -52 -14 0 -73 13
-131 29 -58 16 -143 37 -190 46 -130 26 -133 29 -103 114 15 45 15 49 -6 105
-26 71 -18 86 46 86 58 0 98 22 112 61 16 46 14 47 -17 10 -23 -28 -39 -36
-92 -45 -80 -15 -88 -26 -71 -108 10 -54 10 -69 -3 -107 -35 -96 -20 -111 145
-146 63 -13 154 -38 203 -54 50 -17 103 -31 120 -31 17 0 59 18 100 43 l70 42
189 3 188 4 37 -41 c75 -82 153 -79 263 8 39 32 102 73 138 91 171 86 189 121
99 186 -61 43 -67 51 -90 119 l-17 50 0 -50 c-1 -66 15 -95 70 -125 54 -29 79
-49 79 -61 0 -21 -44 -49 -126 -80 -53 -20 -113 -52 -149 -80 -77 -59 -97 -69
-134 -69 -38 0 -87 41 -94 79 -4 16 -2 66 3 110 6 52 5 102 -1 143 -19 115
-10 178 26 178 7 0 29 -22 48 -49 40 -55 62 -66 115 -56 26 5 51 23 94 68 32
34 61 72 65 85 10 43 -5 165 -31 240 -39 114 -81 191 -151 276 -117 144 -151
236 -164 435 -6 95 -12 127 -35 177 -52 116 -142 175 -276 181 -49 2 -89 -2
-114 -11z m241 -271 c31 -22 57 -96 49 -140 -6 -28 -11 -35 -31 -35 -21 0 -23
3 -18 39 7 51 -10 81 -45 81 -38 0 -52 -17 -52 -63 0 -36 2 -39 53 -61 28 -13
60 -26 69 -29 15 -5 17 -18 15 -79 -2 -68 0 -77 31 -123 18 -27 40 -74 48
-105 9 -30 27 -71 40 -90 35 -53 63 -142 69 -228 11 -137 12 -142 45 -142 38
0 57 21 65 74 12 78 -33 227 -96 319 l-22 32 30 -28 c72 -66 120 -206 109
-319 -6 -64 -5 -67 22 -88 20 -16 22 -20 7 -15 -70 23 -155 5 -155 -33 0 -13
-10 -22 -32 -28 -48 -14 -59 -54 -46 -174 7 -68 7 -114 -2 -169 -16 -99 -21
-113 -40 -101 -13 8 -13 15 0 57 7 26 15 69 18 96 3 38 1 47 -12 47 -9 0 -16
-4 -16 -8 0 -5 -16 -25 -35 -44 -78 -78 -262 -97 -347 -36 -28 20 -32 2 -9
-45 25 -51 26 -61 7 -76 -11 -9 -15 -7 -20 11 -3 13 -6 32 -6 43 0 11 -14 40
-30 65 -20 30 -26 46 -17 49 39 12 61 66 39 97 -4 6 -52 48 -107 94 -55 46
-115 97 -133 114 -39 36 -66 117 -56 171 10 56 21 50 22 -14 0 -55 19 -112 42
-126 16 -10 30 41 30 111 0 71 42 199 83 250 15 20 22 42 22 74 0 30 11 67 33
111 17 36 32 75 32 87 0 34 16 26 50 -23 42 -60 60 -69 106 -50 20 8 52 28 73
44 20 16 53 37 74 47 20 10 37 24 37 31 0 18 -2 17 -80 -22 -91 -48 -125 -52
-170 -23 l-35 23 65 5 c39 4 91 17 130 34 36 16 75 32 88 37 13 5 20 14 17 20
-5 7 -13 5 -24 -5 -31 -28 -133 -58 -201 -60 -63 -1 -67 0 -103 37 -44 43 -43
47 26 108 41 36 47 46 42 68 -14 55 -58 71 -75 26 -10 -27 -5 -51 17 -77 10
-11 11 -18 4 -23 -18 -10 -30 3 -42 47 -9 33 -8 49 6 85 22 57 58 69 92 29 13
-15 23 -40 23 -56 0 -49 9 -60 51 -60 37 0 39 2 33 24 -20 83 76 158 143 111z"/>
</g>
</svg>
