<?xml version="1.0" standalone="no"?>
<!DOCTYPE svg PUBLIC "-//W3C//DTD SVG 20010904//EN"
 "http://www.w3.org/TR/2001/REC-SVG-20010904/DTD/svg10.dtd">
<svg version="1.0" xmlns="http://www.w3.org/2000/svg"
 width="240.000000pt" height="240.000000pt" viewBox="0 0 240.000000 240.000000"
 preserveAspectRatio="xMidYMid meet">
<metadata>
Created by potrace 1.15, written by Peter Selinger 2001-2017
</metadata>
<g transform="translate(0.000000,240.000000) scale(0.100000,-0.100000)"
fill="#000000" stroke="none">
<path d="M554 2012 c-24 -16 -444 -587 -444 -603 0 -25 -4 -20 562 -626 274
-292 506 -534 516 -537 11 -4 29 -3 40 1 12 5 137 132 278 283 809 865 794
849 794 877 0 19 -61 108 -220 320 l-220 293 -648 0 c-356 0 -652 -4 -658 -8z
m346 -129 c0 -17 -202 -389 -218 -401 -13 -10 -61 -12 -190 -11 -95 1 -171 6
-170 11 2 4 70 98 153 208 l150 200 137 0 c76 0 138 -3 138 -7z m560 -190 c58
-109 106 -203 108 -210 3 -10 -69 -13 -357 -13 -198 0 -362 3 -364 8 -4 6 19
50 170 330 l44 82 147 0 147 0 105 -197z m480 -3 c82 -110 150 -204 150 -209
0 -6 -72 -9 -181 -8 l-181 2 -109 203 c-60 112 -109 206 -109 208 0 2 63 4
140 4 l140 0 150 -200z m-1097 -701 c87 -193 157 -353 155 -354 -3 -2 -542
570 -617 655 l-44 50 175 0 174 0 157 -351z m737 348 c0 -19 -369 -811 -376
-808 -10 5 -364 784 -364 801 0 6 129 10 370 10 204 0 370 -2 370 -3z m488 -6
c-3 -9 -649 -701 -654 -701 -4 0 16 45 151 345 65 143 128 284 141 313 l23 52
171 0 c96 0 170 -4 168 -9z"/>
</g>
</svg>
