<?xml version="1.0" standalone="no"?>
<!DOCTYPE svg PUBLIC "-//W3C//DTD SVG 20010904//EN"
 "http://www.w3.org/TR/2001/REC-SVG-20010904/DTD/svg10.dtd">
<svg version="1.0" xmlns="http://www.w3.org/2000/svg"
 width="240.000000pt" height="240.000000pt" viewBox="0 0 240.000000 240.000000"
 preserveAspectRatio="xMidYMid meet">
<metadata>
Created by potrace 1.15, written by Peter Selinger 2001-2017
</metadata>
<g transform="translate(0.000000,240.000000) scale(0.100000,-0.100000)"
fill="#000000" stroke="none">
<path d="M537 1842 c-15 -81 -27 -150 -27 -154 0 -5 291 -8 646 -8 513 0 645
-3 641 -12 -2 -7 -13 -55 -23 -105 l-18 -93 -648 0 c-356 0 -648 -2 -648 -3 0
-2 -13 -71 -30 -152 -16 -81 -30 -150 -30 -152 0 -1 290 -3 645 -3 528 0 645
-2 645 -13 0 -30 -68 -349 -76 -357 -5 -4 -123 -45 -263 -90 l-254 -82 -224
84 -224 83 5 40 c3 22 8 59 12 83 l7 42 -156 0 -155 0 -10 -47 c-33 -152 -65
-333 -62 -336 3 -2 171 -67 373 -144 l369 -141 426 142 c330 110 427 147 434
162 7 18 278 1374 278 1394 0 7 -268 10 -802 10 l-803 0 -28 -148z"/>
</g>
</svg>
