<?xml version="1.0" standalone="no"?>
<!DOCTYPE svg PUBLIC "-//W3C//DTD SVG 20010904//EN"
 "http://www.w3.org/TR/2001/REC-SVG-20010904/DTD/svg10.dtd">
<svg version="1.0" xmlns="http://www.w3.org/2000/svg"
 width="240.000000pt" height="240.000000pt" viewBox="0 0 240.000000 240.000000"
 preserveAspectRatio="xMidYMid meet">
<metadata>
Created by potrace 1.15, written by Peter Selinger 2001-2017
</metadata>
<g transform="translate(0.000000,240.000000) scale(0.100000,-0.100000)"
fill="#000000" stroke="none">
<path d="M1920 2182 c-47 -27 -364 -210 -705 -407 -341 -197 -713 -412 -828
-478 -217 -125 -229 -135 -208 -188 8 -22 48 -41 275 -134 l266 -108 0 -254 0
-254 25 -24 c46 -46 54 -40 249 173 87 94 162 172 168 172 5 0 136 -52 292
-115 155 -63 289 -115 298 -115 9 0 25 8 37 17 19 16 36 110 161 863 139 838
140 845 122 870 -29 39 -58 36 -152 -18z m10 -157 c0 -2 -52 -316 -115 -696
-63 -380 -115 -695 -115 -700 0 -5 -6 -9 -13 -9 -17 0 -499 198 -510 209 -5 5
105 196 242 425 138 230 245 414 239 409 -7 -4 -209 -152 -448 -328 -239 -177
-440 -324 -447 -328 -10 -6 -275 92 -342 127 -23 13 -21 15 70 68 105 62 896
519 1204 696 110 63 204 118 210 123 10 10 25 12 25 4z"/>
</g>
</svg>
