<?xml version="1.0" standalone="no"?>
<!DOCTYPE svg PUBLIC "-//W3C//DTD SVG 20010904//EN"
 "http://www.w3.org/TR/2001/REC-SVG-20010904/DTD/svg10.dtd">
<svg version="1.0" xmlns="http://www.w3.org/2000/svg"
 width="240.000000pt" height="240.000000pt" viewBox="0 0 240.000000 240.000000"
 preserveAspectRatio="xMidYMid meet">
<metadata>
Created by potrace 1.15, written by Peter Selinger 2001-2017
</metadata>
<g transform="translate(0.000000,240.000000) scale(0.100000,-0.100000)"
fill="#000000" stroke="none">
<path d="M690 2111 c-69 -21 -144 -78 -180 -137 -12 -19 -50 -145 -84 -281
l-62 -247 -60 -11 c-95 -18 -148 -56 -190 -135 -17 -31 -19 -64 -22 -280 -4
-280 -7 -270 85 -270 l53 0 0 -87 c0 -103 18 -152 73 -200 85 -75 209 -65 285
21 39 45 52 91 52 189 l0 77 550 0 550 0 0 -93 c0 -79 4 -101 23 -138 74 -140
285 -139 357 1 16 31 20 59 20 135 l0 95 51 0 c94 0 89 -13 89 263 0 214 -3
247 -19 282 -38 81 -105 128 -201 141 l-48 6 -62 246 c-34 136 -70 261 -81
279 -32 51 -115 120 -166 137 -40 14 -111 16 -517 15 -259 0 -482 -4 -496 -8z
m932 -273 c12 -10 108 -359 108 -393 0 -3 -245 -5 -544 -5 l-544 0 48 190 c26
105 53 197 60 205 11 13 73 15 434 15 323 0 426 -3 438 -12z m-1112 -590 c107
-55 129 -189 44 -272 -102 -99 -276 -42 -291 97 -7 56 9 106 45 140 64 61 128
72 202 35z m1528 -11 c121 -80 87 -269 -55 -307 -108 -28 -213 56 -213 170 0
64 47 133 110 159 40 17 115 7 158 -22z"/>
</g>
</svg>
