<?xml version="1.0" standalone="no"?>
<!DOCTYPE svg PUBLIC "-//W3C//DTD SVG 20010904//EN"
 "http://www.w3.org/TR/2001/REC-SVG-20010904/DTD/svg10.dtd">
<svg version="1.0" xmlns="http://www.w3.org/2000/svg"
 width="240.000000pt" height="240.000000pt" viewBox="0 0 240.000000 240.000000"
 preserveAspectRatio="xMidYMid meet">
<metadata>
Created by potrace 1.15, written by Peter Selinger 2001-2017
</metadata>
<g transform="translate(0.000000,240.000000) scale(0.100000,-0.100000)"
fill="#000000" stroke="none">
<path d="M565 1953 c-231 -51 -362 -203 -381 -439 -11 -141 34 -271 143 -416
86 -113 778 -778 811 -778 14 0 42 15 66 37 66 59 594 570 669 647 165 170
238 341 222 516 -25 288 -222 452 -527 438 -82 -3 -102 -8 -169 -41 -68 -33
-134 -77 -226 -153 l-33 -26 -47 40 c-84 70 -204 141 -270 162 -62 19 -201 26
-258 13z m223 -143 c72 -26 168 -91 255 -174 89 -85 104 -86 183 -9 154 148
249 197 384 197 200 2 325 -103 349 -292 16 -128 -20 -241 -116 -360 -55 -68
-688 -682 -703 -682 -15 0 -648 614 -703 682 -94 118 -132 228 -116 347 16
128 40 176 112 230 68 51 90 61 146 71 82 14 150 11 209 -10z"/>
</g>
</svg>
