<?xml version="1.0" standalone="no"?>
<!DOCTYPE svg PUBLIC "-//W3C//DTD SVG 20010904//EN"
 "http://www.w3.org/TR/2001/REC-SVG-20010904/DTD/svg10.dtd">
<svg version="1.0" xmlns="http://www.w3.org/2000/svg"
 width="240.000000pt" height="240.000000pt" viewBox="0 0 240.000000 240.000000"
 preserveAspectRatio="xMidYMid meet">
<metadata>
Created by potrace 1.15, written by Peter Selinger 2001-2017
</metadata>
<g transform="translate(0.000000,240.000000) scale(0.100000,-0.100000)"
fill="#000000" stroke="none">
<path d="M333 2070 c-33 -13 -39 -53 -14 -92 11 -18 176 -188 366 -378 l345
-345 0 -407 0 -408 -185 0 c-184 0 -186 0 -210 -25 -30 -29 -32 -55 -6 -86
l19 -24 496 -3 c431 -2 500 -1 526 13 52 27 49 95 -6 115 -14 6 -104 10 -200
10 l-174 0 0 408 0 407 345 345 c190 190 355 360 366 378 26 40 19 74 -16 90
-32 15 -1617 16 -1652 2z"/>
</g>
</svg>
