<?xml version="1.0" standalone="no"?>
<!DOCTYPE svg PUBLIC "-//W3C//DTD SVG 20010904//EN"
 "http://www.w3.org/TR/2001/REC-SVG-20010904/DTD/svg10.dtd">
<svg version="1.0" xmlns="http://www.w3.org/2000/svg"
 width="240.000000pt" height="240.000000pt" viewBox="0 0 240.000000 240.000000"
 preserveAspectRatio="xMidYMid meet">
<metadata>
Created by potrace 1.15, written by Peter Selinger 2001-2017
</metadata>
<g transform="translate(0.000000,240.000000) scale(0.100000,-0.100000)"
fill="#000000" stroke="none">
<path d="M1160 2030 c-8 -4 -73 -125 -144 -267 l-129 -259 -285 -41 c-296 -43
-312 -47 -312 -92 0 -9 94 -108 210 -221 l209 -205 -48 -279 c-52 -300 -53
-326 -4 -326 12 0 133 58 268 130 135 72 250 130 256 130 5 0 121 -58 257
-130 137 -72 258 -130 270 -130 47 0 47 29 -2 313 -25 147 -46 274 -46 284 0
10 93 108 206 218 174 168 206 204 203 225 -2 13 -14 30 -27 36 -12 6 -146 28
-296 49 l-274 39 -123 254 c-107 219 -145 283 -169 282 -3 0 -12 -5 -20 -10z
m223 -646 c1 -1 101 -16 222 -34 121 -17 222 -34 224 -36 2 -2 -69 -75 -158
-161 l-161 -158 39 -223 c25 -143 34 -222 27 -220 -6 2 -95 47 -197 101 -103
53 -192 97 -199 97 -7 0 -98 -45 -203 -100 -104 -56 -192 -98 -195 -95 -3 3
11 102 32 221 l38 217 -163 163 c-90 90 -159 164 -153 164 14 0 438 61 440 63
1 1 48 94 103 206 l102 203 100 -203 c55 -112 101 -204 102 -205z"/>
</g>
</svg>
