<?xml version="1.0" standalone="no"?>
<!DOCTYPE svg PUBLIC "-//W3C//DTD SVG 20010904//EN"
 "http://www.w3.org/TR/2001/REC-SVG-20010904/DTD/svg10.dtd">
<svg version="1.0" xmlns="http://www.w3.org/2000/svg"
 width="240.000000pt" height="240.000000pt" viewBox="0 0 240.000000 240.000000"
 preserveAspectRatio="xMidYMid meet">
<metadata>
Created by potrace 1.15, written by Peter Selinger 2001-2017
</metadata>
<g transform="translate(0.000000,240.000000) scale(0.100000,-0.100000)"
fill="#000000" stroke="none">
<path d="M1018 2205 c-182 -35 -354 -125 -497 -260 -124 -118 -209 -266 -257
-450 -23 -86 -27 -121 -27 -245 0 -130 3 -155 27 -235 69 -229 208 -425 381
-540 262 -174 555 -215 848 -118 253 84 437 246 558 493 102 209 122 416 63
649 -45 177 -131 328 -255 446 -124 118 -278 205 -436 246 -103 27 -300 34
-405 14z m-105 -225 c-16 -37 -23 -64 -17 -69 16 -16 282 -161 294 -161 12 0
277 145 294 161 5 5 -2 33 -17 69 -15 33 -23 60 -18 60 23 0 103 -35 164 -71
69 -41 191 -148 228 -200 l19 -27 -73 5 -73 6 -32 -171 -32 -172 77 -73 c43
-40 101 -94 128 -119 l50 -46 50 44 c28 24 52 44 55 44 12 0 -10 -169 -30
-235 -22 -71 -75 -180 -109 -225 l-19 -25 -7 30 c-24 103 -25 105 -53 105 -42
-1 -313 -37 -319 -43 -8 -8 -143 -298 -143 -308 0 -4 25 -22 55 -39 30 -17 53
-35 50 -40 -11 -18 -148 -40 -244 -40 -98 0 -251 25 -251 41 0 4 25 22 55 39
30 17 55 35 55 40 0 9 -137 300 -145 309 -6 5 -275 40 -317 41 -28 0 -29 -2
-53 -105 l-7 -30 -19 25 c-34 45 -87 154 -109 225 -20 67 -42 235 -30 235 3 0
28 -20 56 -44 l50 -44 126 117 c123 113 127 117 122 151 -3 19 -17 97 -31 174
l-26 138 -68 -4 c-41 -3 -69 -1 -69 4 0 20 137 151 204 196 64 43 166 91 193
92 7 0 2 -22 -14 -60z"/>
<path d="M1038 1462 c-81 -59 -147 -112 -148 -119 0 -7 25 -89 55 -183 l56
-170 189 0 189 0 56 170 c30 94 55 176 55 183 -1 10 -279 218 -299 224 -4 0
-72 -47 -153 -105z"/>
</g>
</svg>
