<?xml version="1.0" standalone="no"?>
<!DOCTYPE svg PUBLIC "-//W3C//DTD SVG 20010904//EN"
 "http://www.w3.org/TR/2001/REC-SVG-20010904/DTD/svg10.dtd">
<svg version="1.0" xmlns="http://www.w3.org/2000/svg"
 width="240.000000pt" height="240.000000pt" viewBox="0 0 240.000000 240.000000"
 preserveAspectRatio="xMidYMid meet">
<metadata>
Created by potrace 1.15, written by Peter Selinger 2001-2017
</metadata>
<g transform="translate(0.000000,240.000000) scale(0.100000,-0.100000)"
fill="#000000" stroke="none">
<path d="M1160 2080 c-8 -4 -73 -125 -144 -267 l-129 -259 -274 -39 c-151 -21
-284 -44 -296 -50 -12 -6 -24 -21 -25 -34 -3 -20 34 -61 207 -230 l210 -206
-48 -280 c-52 -299 -53 -325 -6 -325 14 0 135 58 270 130 135 72 250 130 256
130 5 0 121 -58 257 -130 137 -72 258 -130 270 -130 48 0 48 29 -2 313 -25
146 -46 274 -46 284 0 11 81 97 200 212 118 113 203 203 206 218 12 47 -6 53
-308 97 l-283 41 -125 253 c-109 221 -146 283 -169 282 -3 0 -13 -5 -21 -10z"/>
</g>
</svg>
