<?xml version="1.0" standalone="no"?>
<!DOCTYPE svg PUBLIC "-//W3C//DTD SVG 20010904//EN"
 "http://www.w3.org/TR/2001/REC-SVG-20010904/DTD/svg10.dtd">
<svg version="1.0" xmlns="http://www.w3.org/2000/svg"
 width="240.000000pt" height="240.000000pt" viewBox="0 0 240.000000 240.000000"
 preserveAspectRatio="xMidYMid meet">
<metadata>
Created by potrace 1.15, written by Peter Selinger 2001-2017
</metadata>
<g transform="translate(0.000000,240.000000) scale(0.100000,-0.100000)"
fill="#000000" stroke="none">
<path d="M1129 1876 c-36 -19 -800 -656 -806 -673 -11 -28 77 -126 104 -116 9
4 183 145 386 315 l368 307 363 -303 c199 -167 373 -309 385 -316 21 -11 27
-7 67 36 24 27 44 58 44 69 0 13 -40 53 -120 119 l-120 100 0 222 c0 189 -2
225 -16 238 -12 12 -37 16 -112 16 -151 0 -142 8 -142 -127 0 -70 -4 -113 -10
-111 -5 2 -68 51 -139 110 -158 132 -190 146 -252 114z"/>
<path d="M873 1358 l-303 -250 0 -274 c0 -261 1 -275 20 -294 19 -19 33 -20
235 -20 l215 0 0 205 0 205 140 0 140 0 0 -205 0 -205 219 0 220 0 20 26 c20
26 21 38 21 293 l-1 266 -305 250 c-168 138 -309 251 -312 252 -4 1 -143 -111
-309 -249z"/>
</g>
</svg>
